<?xml version="1.0" encoding="UTF-8"?>
<svg id="Layer_2" data-name="Layer 2" xmlns="http://www.w3.org/2000/svg" viewBox="0 0 421.1 280.86">
  <defs>
    <style>
      .cls-1 {
        stroke-width: 2px;
      }

      .cls-1, .cls-2 {
        fill: #e41e25;
        stroke: #231f20;
        stroke-miterlimit: 10;
      }
    </style>
  </defs>
  <g id="Layer_1-2" data-name="Layer 1">
    <path class="cls-1" d="M87.65,61.6c-6.76-1.24-12.82-4.27-18.17-9.09v-1.3c0-5.95.43-10.6,1.3-13.95,1.67-3.19,5.54-10.44,10.47-15.36-10.99-8.43-28.39-9.89-41.46-8.21C26.01,15.46-7.44,70.22,2.98,57.8s37.87-25.93,39.89-24.44,3.57,9.68,3.57,21.74c0,14.93-1.95,22.39-5.84,22.39v.65c4.98,1.35,7.46,4.17,7.46,8.44v6.49c0,8.27-2.06,13.79-6.17,16.55h-.32c-1.17,4.22-2.53,8.31-5.56,11.87-.48.56-.98,1.09-1.5,1.6,3.78,2.29-7.98,3.38-3.75,3.73,6.34.51,23.92.17,26.61-.32.93-.17,19.09-1.33,21.51-3.03-2.86-5.08-5.13-10.43-6.98-15.95-2.26-1.81-3.93-6.73-5.02-14.77,0-5.35,1.84-9.79,5.52-13.3,2.49-1.73,8-2.6,16.55-2.6,17.52.49,14.28,1.68,14.28,3.57,2.16,0-.75,3.35-.75,10.06v1.95c0,2.92-.22,5.3-.65,7.14-1.31,4.78-2.68,7.85-4.1,9.22-1.48,5.56-3.84,10.86-7.02,17.18,11.18.08,14.02,2.99,33.53,2.43,1.81-1.58,4.41-2.23,7.76-3.52,1.86-1.08,3.48-2.16,4.87-3.25-2.88.92-7-.8-8.28-3.5-1.76-3.72-2.98-7.41-3.28-11.49-1.7-2.25-3.04-6.77-4.02-13.56,0-7.9,2.81-12.87,8.44-14.93v-.65c-3.89,0-5.84-6.81-5.84-20.44v-4.22c0-4.54.22-8.11.65-10.71.43-6.44,2.81-10.33,7.14-11.68,2.05,0,2.9,2.42,9.09,6.81-2.12-7.06-12.62-25.67-19.82-35.49-6.47,10.13-23.19,25.52-21.38,36.73.64,2.43.96,5.37.96,8.82v3.57l.32,2.27-13.2,8.44Z"/>
    <path class="cls-1" d="M148.05,124.85h-2.6c-4.54-1.08-6.81-2.05-6.81-2.92v-.32c6.44-1.89,11.3-5.25,14.6-10.06,3.03-5.3,4.54-10.38,4.54-15.25l.65-11.36-.32-16.22c0-2.87-2.49-4.6-7.46-5.19h-.65c-1.84,0-4.22,1.08-7.14,3.24h-.32l-.65-.65v-.32c1.73-3.84,4.98-6.54,9.73-8.11,4.65-2.16,9.63-3.25,14.93-3.25,5.84,0,9.41,1.84,10.71,5.52,2.38,3.3,3.57,5.46,3.57,6.49-1.3,11.57-3.68,25.31-7.14,41.21,1.24,6.71,4.38,10.06,9.41,10.06h.65c1.3,0,2.7-.54,4.22-1.62h.32v.32c-3.3,6.27-7.95,9.41-13.95,9.41h-.32l-25.96-.97Z"/>
    <path class="cls-1" d="M204.51,125.17h-.65c-7.57,0-13.09-2.6-16.55-7.79l9.41-1.62c2.81-2.7,4.22-5.08,4.22-7.14v-1.95l-.97-11.68c.43-3.3.76-9.57.97-18.82,0-8-1.19-12.01-3.57-12.01l-6.17-1.62c-1.14,0-2.11.32-2.92.97l-.32-.32c2-4.87,5.03-8.22,9.09-10.06l1.3-.32c8,0,14.17,2.6,18.5,7.79,3.08-5.62,7.41-9.79,12.98-12.49h2.6c11.73,1.68,17.6,4.6,17.6,8.76v6.17c0,7.19-4.14,12.87-12.41,17.04-3.84,2.16-6.87,3.25-9.09,3.25-3.25,0-4.87-1.19-4.87-3.57-.38,0-.6-.76-.65-2.27v-.65c.76-1.3,1.73-1.95,2.92-1.95.54,1.73,1.08,2.6,1.62,2.6h1.3c2.81,0,4.22-2.49,4.22-7.46-.27-3.46-1.46-5.19-3.57-5.19h-1.3c-3.73,0-7.09,2.49-10.06,7.46l-.65,1.95-.32,19.47.97,13.95-.65,5.19c0,3.41,3.57,5.79,10.71,7.14h2.92l.33-.32h.32l.65.97c0,1.62-4,3.35-12.01,5.19h-.65l-15.25-.65Z"/>
    <path class="cls-1" d="M293.4,43.64h5.52c7.03,0,12.87,3.68,17.52,11.03,1.73,7.57,3.57,11.36,5.52,11.36,2.7,1.95,5.73,2.92,9.08,2.92l1.62-.97c.43,0,.65.32.65.97,0,3.57-9.08,8.11-27.26,13.63-2.16,1.08-5.95,2.38-11.36,3.89-9.03,3.95-13.58,6.33-13.63,7.14,1.62,2.81,4.11,8.44,7.46,16.87,2.49,3.46,5.73,5.19,9.73,5.19h3.25c6.33,0,10-3.46,11.03-10.38v-2.6c-2.06,1.73-3.68,2.6-4.87,2.6h-1.3c-2.49,0-4.11-1.84-4.87-5.52v-.65c0-3.35,2.7-5.41,8.11-6.17h.32c6.65,0,11.2,4.98,13.63,14.93,0,5.41-4,10.28-12.01,14.6-8.71,3.68-14.55,5.52-17.52,5.52h-6.49c-9.19,0-17.52-8.87-24.99-26.61-2.49-5.84-6.06-8.76-10.71-8.76l-5.19.32v-.65c4.54-2.43,6.81-5.35,6.81-8.76v-1.3c-1.3-4.76-1.95-8.44-1.95-11.03v-2.92c0-8.22,5.3-14.93,15.9-20.12l7.79-1.95,2.92.32c6.65-1.95,11.73-2.92,15.25-2.92ZM275.88,73.9l.32,1.7,1.46,5.6h.24c4.16-2.76,11.06-5.06,20.69-6.9,4.6-1.46,7.22-2.46,7.87-3-5.73-6.17-12.41-9.9-20.04-11.19l-1.22.24c-7.57,2.49-10.68,7-9.33,13.55Z"/>
    <path class="cls-1" d="M402.41,23.85h.97c1.89,0,3.76,1.19,5.6,3.57v.32h-.65c-1.08-.81-2.33-1.35-3.73-1.62-3.73,0-5.6,7.36-5.6,22.07,0,13.68,2.08,35.21,6.25,64.57,2.11,3.3,7.06,5.9,14.85,7.79v.32c0,1.19-6.41,2.6-19.23,4.22-6.81,0-11.36-2.92-13.63-8.76h-.57c-.27,2.22-5.65,5.68-16.14,10.38l-5.52.65h-2.52c-4.22,0-9.68-2.7-16.39-8.11-2.71-4.43-4.06-7.46-4.06-9.09v-3.57c-2.43-3.25-5.95-5.73-10.55-7.46l-9.25-1.95v-.65h2.19c7.52,0,12.36-4.22,14.52-12.66l.65-12.33v-2.6c0-5.79,2.16-9.57,6.49-11.36,3.19-1.08,7.52-1.62,12.98-1.62h.33c4.43,0,9.09,1.62,13.95,4.87,4.6,2.16,7.38,3.25,8.36,3.25h.57v-.32c-3.89-20.12-6.17-30.5-6.81-31.15-2.65-.65-5-.97-7.06-.97l-4.06.32c7.41-4.33,13.2-6.49,17.36-6.49,1.46,0,3.62,1.08,6.49,3.25,2.81-3.25,7.54-4.87,14.2-4.87ZM360.55,89.07c.32,13.2,1.03,19.79,2.11,19.79,1.62.87,3.22,1.3,4.79,1.3h1.46c10.76-2.81,16.14-9.19,16.14-19.15-.97-4.11-1.68-8.22-2.11-12.33-5.19-3.46-9.17-5.19-11.92-5.19h-2.11c-4.44,0-7.03,3.68-7.79,11.03l-.57,4.54Z"/>
    <path class="cls-1" d="M263.25,192.49l.97.08c3.89.43,6.17,1.35,6.81,2.76v.32l-.65-.08c-3.57-.22-5.95,2.87-7.14,9.25-.43,3.73-.87,14.74-1.3,33.02l.65,13.06-.32.89c4.16,4.65,7.95,7.09,11.36,7.3l4.54-.97c-3.03,7.14-5.84,10.63-8.44,10.46l-4.54.24c-6.92-.92-10.38-2.65-10.38-5.19-.65-.27-1.41-2.49-2.27-6.65h-.32c-1.62,3.68-6.71,8.09-15.25,13.22-3.68,3.14-5.52,6.03-5.52,8.68v.97h-.32c-4.38-6.38-7.52-9.63-9.41-9.74-9.79-.65-16.39-4.54-19.79-11.68-4.11-4.65-6.17-12.03-6.17-22.15l-1.3-16.96,1.62-12.9c0-3.24-2.6-5.06-7.79-5.44-2.16-.11-4.22.19-6.17.89l-.32-.32v-.32c2.76-4.38,6.65-6.38,11.68-6h.65c3.35.22,6.71,1.87,10.06,4.95,0-2.92,3.03-5.33,9.09-7.22l9.41-.32v.65c-3.41-.22-5.46,4.73-6.17,14.85v6.17l1.95,21.58c1.03,5.08,2.43,8.41,4.22,9.98,2.27,2.98,5.08,4.57,8.44,4.79,4.49.33,9.03-2.16,13.63-7.46,1.51-3.35,2.27-8.17,2.27-14.44l-.32-21.82c0-3.3-4.33-6.52-12.98-9.65l-.32-.32v-.32c2.97-2.38,7.08-3.41,12.33-3.08,3.03.22,5.3,1.68,6.81,4.38h.32c0-3.46,3.46-5.27,10.38-5.44Z"/>
    <path class="cls-1" d="M319.68,175.29h.65v.65c0,5.9,3.35,10.87,10.06,14.93,2.22.65,5.25.97,9.08.97h1.3c6.54,0,10.87,6.38,12.98,19.15v4.54c0,4.92-1.84,13.03-5.52,24.34l-.97,6.81c0,7.14,2.38,10.71,7.14,10.71,3.35,0,6.71-1.95,10.06-5.84v.65c-5.68,11.25-11.84,16.87-18.5,16.87l-2.27.32h-3.89c-5.46,0-10.22-5.41-14.28-16.22l-.32-2.27c.65-1.35,1.41-4.27,2.27-8.76l.32-17.85c0-10.76-3.35-17.58-10.06-20.44,0-.27-.87-.49-2.6-.65-5.79,0-10.44,5.84-13.95,17.52l-.65,7.79v1.62l-.32,1.62c1.35,16.28,3.62,25.47,6.81,27.58,1.95,1.89,5.41,4.06,10.38,6.49v.33c-2.06,1.73-4.76,2.6-8.11,2.6h-1.3c-8.27,0-13.52,3.42-18.01-3.5-5.95,3.68-12.49-1.36-17.36-1.36h-4.54v-.33c7.3-4.06,11.63-8.38,12.98-12.98.65-1.89.97-4.16.97-6.81-.81-34.83-1.68-50.24-2.6-50.24-1.73-2.38-3.89-3.57-6.49-3.57l-11.68.65h-.32l-.32-.32h-.33c1.46-3.68,3.19-5.52,5.19-5.52,2.81-1.51,6.06-2.27,9.73-2.27h.32c3.68,0,7.68,1.62,12.01,4.87h.32c3.79-4.98,8.33-7.46,13.63-7.46,1.35,0,2.43.87,3.25,2.6-5.41,2-8.11,5.3-8.11,13.9l.65,6.49c6.38-9.95,11.03-14.93,13.95-14.93s5.08-1.3,6.17-3.89c.43-2.87,1.19-5.79,2.27-8.76Z"/>
    <path class="cls-1" d="M179.83,46.79c-26.76,15.54-27.88-4.8-29.2-8.76s9.63-3.25,14.93-3.25c5.84,0,9.41,1.84,10.71,5.52,2.38,3.3,3.57,5.46,3.57,6.49"/>
  </g>
  <g id="Layer_5" data-name="Layer 5">
    <g>
      <path class="cls-1" d="M134.96,183.3l.36-22.47c-.32,5.46-.43,16.95-.36,22.47Z"/>
      <path class="cls-1" d="M139.62,150.96c-.78,2.33,1.77,9.87,1.77,9.87,0,0,4.96,5.1,7.32,8.81,2.59,4.09,3.04,3.68,28.27,3.46,5.66-.05,10.94-.06,15.07-.05h0s-.09-35.55-.09-35.55l-1.36.02-.3,35.09-31.9.49-.38-35.12,21.83-.31-31.07.42c-1,.55-8.36,10.55-9.14,12.88Z"/>
      <path class="cls-1" d="M206.01,146.63c-.08-1.28-.06-.95,0,0h0Z"/>
      <path class="cls-1" d="M206.12,137.99l-.11,7.96s.01.43.02.68l85.78.5c-1.11-.06-85.02-.87-85.02-.87l-.67-8.28Z"/>
      <path class="cls-1" d="M206.23,150.19c.02.25.19,2.42.33,4.29-.02-.23-.54-7.61-.56-7.84.05.91.14,2.37.22,3.55Z"/>
      <path class="cls-1" d="M165.57,225.77c-7.9-.92-33.27,2.98-32.77,11.68l.32.33c3.04-.93,17.57-1.09,17.2-.33,7.79-.13,10,3.61,9.41,9.41,0,11.51-9.64,16.3-22.71,16.22-5.79,0-9.79-1.62-12.01-4.87-11.05-12.14-18.16-64.08,9.95-66.69v-20.84c-13.71,1.38-30.79,1.69-39.66,13.15-10.77,11.91-14.99,39.22-28.7,40.3v.33l.65.65c4.1-.04,7.79.71,10.71,2.27,6.12,2.19,4.84,31.46,18.82,37.64,21.2,11.02,52.46,10.2,67.49.97h.32c3.28,3.26,5.85,4.94,15.9,6.17l.32-.32c-2.42-12.04-3.59-19.67-3.57-24.34.85-9.62,10.02-1.1,7.79,3.57,6.11.75,9.08-8.39,8.44-15.58-2.49-6.49-11.79-9.73-27.91-9.73Z"/>
      <path class="cls-1" d="M134.96,170.69l.36-9.87c-4.32.42-6.59,3.52-7.01,7.54,0,.44-6.63,0-6.98,0-2.69-.16-3.4-.08-3.06,2.47-1.56-.49-7.49-1.61-6.2,2.71,7.23-2,23.47-2.98,22.9-2.85Z"/>
      <path class="cls-1" d="M134.96,170.69c.5-.11-15.48.81-22.8,2.83,4.79-.92,18.37-2.43,22.8-2.83Z"/>
      <path class="cls-1" d="M139.62,150.96c.86-2.44,8.14-12.4,9.29-12.98-3.71-1.18,3.49-4.33,2.61-5.51-.22-1.26-5.16-2.08-6.38-.53-1.22,1.55-.53,6.71-.53,6.71-.53-.31-7.64-.84-8.42.11,0,0-3.75-4.32-6.14-5.32s-8.05-1.11-8.16-.11,3.55,1.49,5.87,3.9c3.71,4,6.26,7.85,8.65,10.51-3.6,2.82-1.76,10.46-1.08,13.08h6.07s-2.55-7.54-1.77-9.87Z"/>
      <path class="cls-1" d="M176.97,173.09c-33.91.99-23.53-.41-35.58-12.26h-6.07l-.36,22.47,55.31-2.83h0c5.76.04,11.93-2.13,10.31-7.38-7.93-.05-14.77-.08-23.61,0Z"/>
      <path class="cls-1" d="M206.57,154.48q-.56-7.85-.56-7.84c.25,4,.17,2.83,0,0-.06-.95-.08-1.28,0,0h.02c-.05-.18.1-8.23.09-8.65h0c-1.07-3.07-5.83-2.96-7.45-2.91,0,0-45.47.08-45.47.08-.16.1-4.29,2.82-4.44,2.92,7.78-.11,34.53-.47,41.82-.58h0s1.36-.01,1.36-.01l.09,35.55c5.17.01,8.56.05,8.55.05.19-1.77,1.73-9.42,4.49-10.57l.17-4.35,1.55-.89s-.07-.83-.15-1.92h0s-.06-.88-.06-.88Z"/>
      <path class="cls-1" d="M206.01,146.64c0,.08,0,.14.01.16v-.16h-.01Z"/>
      <polygon class="cls-1" points="206.01 146.63 206.01 146.64 206.01 146.64 206.01 146.63"/>
      <path class="cls-1" d="M148.91,137.99l-.15.1c.07-.04.12-.07.15-.1Z"/>
      <path class="cls-1" d="M200.58,173.09s-3.36-.04-8.54-.05l8.54.05Z"/>
      <path class="cls-1" d="M158.37,173.09l31.9-.49.3-35.09c-6.85.09-25.5.36-32.59.46l.38,35.12ZM173.87,142.88h13.67v8.54h-13.78c-4.12.21-4.11-9.12.11-8.54ZM173.87,159.17h13.67v8.54h-13.78c-4.12.21-4.11-9.12.11-8.54Z"/>
      <polygon class="cls-1" points="190.58 137.51 179.82 137.66 190.58 137.51 190.58 137.51"/>
      <path class="cls-1" d="M173.76,167.7h13.78v-8.54h-13.67c-4.22-.59-4.23,8.74-.11,8.54Z"/>
      <path class="cls-1" d="M304.83,144.73c-.39-7.11-1.42-6.31-8.07-6.31,0,0-90.64-.42-90.64-.42,0,0,.67,8.28.67,8.28,0,0,83.91.81,85.02.87s.67,3.27.67,3.27c0,0,9.83.72,11.36,0s.99-5.68.99-5.68Z"/>
      <path class="cls-1" d="M206.02,146.8c.03.45.59,8.41.61,8.56l83.35,1.03s-.44-1.22,1.02-2.27c1.46-1.05.79-6.98.79-6.98l-85.78-.5c0,.14,0,.23,0,.16Z"/>
      <path class="cls-1" d="M206.01,146.64c0,.13.02.33.02,0h-.02s0,0,0,0Z"/>
      <path class="cls-1" d="M206.63,155.36h0c-.02-.28-.05-.58-.07-.88l.06.88Z"/>
      <path class="cls-1" d="M291.02,134.17c-4.14.02-4.75,3.83-4.75,3.83,0,0,10.49.42,10.49.42,0,0-1.07-4.27-5.74-4.25Z"/>
      <path class="cls-1" d="M136.03,183.3v8.23h11.42c-.57-8.8,31.72-7.18,33.45-7.69,0,0,.02.12.02.3,5.95-.21,10.42-.3,10.42-.3v-3.37c-2.54.59-53.03,2.82-55.31,2.83Z"/>
      <path class="cls-1" d="M134.96,183.3c2.41-.02,52.68-2.24,55.31-2.83h0s-55.31,2.83-55.31,2.83Z"/>
      <path class="cls-1" d="M170.51,191.53c3.49,18.22-26.57,16.67-23.06,0h-7.23c4.09,9.74,6.04,20.31,23.47,16.07,15.37-4.27,11.82-13.51,17.24-23.46-4.71.17-10.33.42-15.43.76.01.01,4.43,4.13,5.02,6.62Z"/>
      <path class="cls-1" d="M150.72,198.9c.56.91,2,2.41,4.55,2.82,5.31.48-7.28-.63.04-15.72l-3.72.77c-1.09,1.61-2.76,9.96-.87,12.13Z"/>
      <path class="cls-1" d="M173.76,151.41h13.78v-8.54h-13.67c-4.22-.59-4.23,8.74-.11,8.54Z"/>
    </g>
    <path class="cls-2" d="M349.21,139.76c2.33.45,4.72.72,6.98,1.41,2.06.62,2.91,2.07,2.81,3.89-.1,1.85-1.48,2.55-2.96,2.91-3.05.74-6.09,1.84-9.32.82-.28-.09-.68.05-.97.2-1.52.8-2.47.2-2.81-1.29-.29-1.26-.5-2.62-.36-3.89.31-2.68,1.56-3.7,4.24-3.8.78-.03,1.56,0,2.33,0,.02-.08.03-.16.05-.24ZM350.46,146.39c-1.67-.12-3.33-.25-4.95-.37.16.73,2.55,1.09,4.95.37Z"/>
    <path class="cls-2" d="M327.5,148.02c-.15-.78-.24-1.27-.34-1.75.09-.16.18-.31.27-.47,1.13,2.6,3.06,2.57,5.13,2.05.06-.54-.56-.98-4.18-3.01h7.52c.01.25.03.5.04.74-.81.15-1.62.31-2.52.48.15,3.23,2.94,1.34,4.66,2.46-1.3.23-2.27.41-3.34.6-.09.37-.19.8-.25,1.09-2.68-2.29-5.46-1.12-8.06-.4-.79-.56-1.47-1.04-2.26-1.6,1.06-.06,2.08-.12,3.32-.19Z"/>
    <path class="cls-2" d="M322.58,146.3h-11.62c0-.22-.01-.44-.02-.66,1.19-.08,2.38-.17,3.71-.26-.03-.52-.06-.98-.12-1.85,1.99,3.45,5.51,1.06,8.04,2.76Z"/>
    <path class="cls-2" d="M331.04,154.64c2.88-1.16,5.76-2.32,8.63-3.48.08.21.16.41.25.62-2.54,2.01-5.61,2.69-8.69,3.35-.06-.16-.13-.32-.19-.49Z"/>
    <path class="cls-2" d="M341.25,138.77c-1.87.46-5.28-.36-7.93-2.32,2.68.61,5.36,1.22,8.04,1.82-.04.16-.07.33-.11.49Z"/>
    <path class="cls-2" d="M337.99,143.5c-1.74-.09-3.47-.17-5.21-.26,0-.26.02-.52.02-.78h5.28c-.03.35-.06.69-.1,1.04Z"/>
  </g>
</svg>